<!DOCTYPE svg PUBLIC "-//W3C//DTD SVG 1.1//EN" "http://www.w3.org/Graphics/SVG/1.1/DTD/svg11.dtd">
<!-- Uploaded to: SVG Repo, www.svgrepo.com, Transformed by: SVG Repo Mixer Tools -->
<svg fill="#e9eaec" width="800px" height="800px" viewBox="0 0 100 100" xmlns="http://www.w3.org/2000/svg">
<g id="SVGRepo_bgCarrier" stroke-width="0"/>
<g id="SVGRepo_tracerCarrier" stroke-linecap="round" stroke-linejoin="round"/>
<g id="SVGRepo_iconCarrier">
<path d="M71.8,25h-2a.94.94,0,0,0-1,1v4a8,8,0,0,1-7.93,8H39.1a8,8,0,0,1-7.93-8V26a.94.94,0,0,0-1-1h-2a6,6,0,0,0-5.95,6V74a6,6,0,0,0,5.95,6H71.8a6,6,0,0,0,5.95-6V31A6,6,0,0,0,71.8,25ZM43.06,66a2,2,0,0,1-2,2h-2a2,2,0,0,1-2-2V56a2,2,0,0,1,2-2h2a2,2,0,0,1,2,2ZM53,66a2,2,0,0,1-2,2H49a2,2,0,0,1-2-2V47a2,2,0,0,1,2-2h2a2,2,0,0,1,2,2Zm9.91,0a2,2,0,0,1-2,2h-2a2,2,0,0,1-2-2V51a2,2,0,0,1,2-2h2a2,2,0,0,1,2,2Z" fill-rule="evenodd"/>
<path d="M39.1,32H60.9a2,2,0,0,0,2-2V26a6,6,0,0,0-5.95-6H43.06a6,6,0,0,0-5.95,6v4A2,2,0,0,0,39.1,32Z" fill-rule="evenodd"/>
</g>
</svg>