<!DOCTYPE svg PUBLIC "-//W3C//DTD SVG 1.1//EN" "http://www.w3.org/Graphics/SVG/1.1/DTD/svg11.dtd">
<!-- Uploaded to: SVG Repo, www.svgrepo.com, Transformed by: SVG Repo Mixer Tools -->
<svg fill="#e9eaec" height="800px" width="800px" version="1.1" id="Capa_1" xmlns="http://www.w3.org/2000/svg" xmlns:xlink="http://www.w3.org/1999/xlink" viewBox="0 0 442.887 442.887" xml:space="preserve">
<g id="SVGRepo_bgCarrier" stroke-width="0"/>
<g id="SVGRepo_tracerCarrier" stroke-linecap="round" stroke-linejoin="round"/>
<g id="SVGRepo_iconCarrier"> <g> <path d="M166.918,122.093h109.051c5.514,0,10-4.486,10-10V69.69c0-5.514-4.486-10-10-10h-7.434 c0.865-3.617,1.336-7.385,1.336-11.263C269.871,21.724,248.146,0,221.443,0s-48.427,21.724-48.427,48.427 c0,3.878,0.471,7.646,1.336,11.263h-7.434c-5.514,0-10,4.486-10,10v42.402C156.918,117.607,161.404,122.093,166.918,122.093z M221.443,28.389c11.067,0,20.039,8.972,20.039,20.039s-8.972,20.039-20.039,20.039s-20.039-8.972-20.039-20.039 S210.376,28.389,221.443,28.389z"/> <path d="M221.451,339.444c20.682-0.031,37.52-16.894,37.52-37.59v-11.216c0-0.964-0.039-1.937-0.116-2.912h-4.669 c-9.065,0-12.535-8.376-14.136-13.75c-8.962,4.202-29.799,13.183-56.015,13.725c-0.079,0.984-0.118,1.965-0.118,2.938v11.216 C183.916,322.55,200.754,339.413,221.451,339.444z"/> <path d="M373.385,82.47h-41.57c-11.028,0-20,8.972-20,20v35.468c0,5.514-4.486,10-10,10H141.072c-5.514,0-10-4.486-10-10V102.47 c0-11.028-8.972-20-20-20h-41.57c-11.028,0-20,8.972-20,20v320.417c0,11.028,8.972,20,20,20h303.883c11.028,0,20-8.972,20-20 V102.47C393.385,91.442,384.413,82.47,373.385,82.47z M280.065,384.872l-0.068,27.125H162.889l-0.07-27.56v-21.342 c0-11.387,12.54-15.799,21.697-19.021c1.916-0.674,4.067-1.431,5.887-2.19c-0.197-0.216-0.396-0.434-0.595-0.652 c-8.284-9.086-17.669-19.381-17.738-37.612l-1.102-14.085c-2.508-32.267,14.408-37.479,37.822-44.692 c3.527-1.086,7.174-2.21,11.08-3.504c5.1-1.69,10.112-2.547,14.898-2.547c10.195,0,19.115,3.817,25.796,11.038 c8.59,9.283,12.622,23.384,11.353,39.706l-1.102,14.085c-0.068,18.231-9.454,28.526-17.738,37.612 c-0.2,0.219-0.398,0.437-0.595,0.652c1.82,0.76,3.971,1.517,5.887,2.19c9.157,3.222,21.697,7.634,21.697,19.021L280.065,384.872z M307.443,211.443h-172V182.7h172V211.443z"/> <polygon points="221.443,386.338 251.151,354.83 191.736,354.83 "/> </g> </g>
</svg>