<!DOCTYPE svg PUBLIC "-//W3C//DTD SVG 1.1//EN" "http://www.w3.org/Graphics/SVG/1.1/DTD/svg11.dtd">
<!-- Uploaded to: SVG Repo, www.svgrepo.com, Transformed by: SVG Repo Mixer Tools -->
<svg fill="#e9eaec" version="1.1" id="Layer_1" xmlns="http://www.w3.org/2000/svg" xmlns:xlink="http://www.w3.org/1999/xlink" width="800px" height="800px" viewBox="0 0 92 92" enable-background="new 0 0 92 92" xml:space="preserve">
<g id="SVGRepo_bgCarrier" stroke-width="0"/>
<g id="SVGRepo_tracerCarrier" stroke-linecap="round" stroke-linejoin="round"/>
<g id="SVGRepo_iconCarrier"> <path id="XMLID_89_" d="M43.3,73.8c-0.8,0-1.6-0.3-2.2-0.8c-1-0.8-1.5-2.1-1.2-3.4l4.9-25l-2.7,1.5c-1.7,0.9-3.8,0.4-4.8-1.3 c-0.9-1.7-0.4-3.8,1.3-4.8l9.3-5.3c1.2-0.7,2.7-0.6,3.8,0.2c1.1,0.8,1.6,2.2,1.4,3.5L48,64.4l4.2-1.8c1.8-0.8,3.8,0,4.6,1.8 c0.8,1.8,0,3.8-1.8,4.6l-10.3,4.5C44.3,73.7,43.8,73.8,43.3,73.8z M53.2,26c0.9-0.9,1.5-2.2,1.5-3.5c0-1.3-0.5-2.6-1.5-3.5 c-0.9-0.9-2.2-1.5-3.5-1.5c-1.3,0-2.6,0.5-3.5,1.5c-0.9,0.9-1.5,2.2-1.5,3.5c0,1.3,0.5,2.6,1.5,3.5c0.9,0.9,2.2,1.5,3.5,1.5 C51,27.5,52.3,27,53.2,26z M92,46C92,20.6,71.4,0,46,0S0,20.6,0,46s20.6,46,46,46S92,71.4,92,46z M84,46c0,21-17,38-38,38S8,67,8,46 S25,8,46,8S84,25,84,46z"/> </g>
</svg>