<!DOCTYPE svg PUBLIC "-//W3C//DTD SVG 1.1//EN" "http://www.w3.org/Graphics/SVG/1.1/DTD/svg11.dtd">
<!-- Uploaded to: SVG Repo, www.svgrepo.com, Transformed by: SVG Repo Mixer Tools -->
<svg width="800px" height="800px" viewBox="0 0 24 24" fill="none" xmlns="http://www.w3.org/2000/svg">
<g id="SVGRepo_bgCarrier" stroke-width="0"/>
<g id="SVGRepo_tracerCarrier" stroke-linecap="round" stroke-linejoin="round"/>
<g id="SVGRepo_iconCarrier"> <path d="M17 2H7C4.79086 2 3 3.79086 3 6V18C3 20.2091 4.79086 22 7 22H17C19.2091 22 21 20.2091 21 18V6C21 3.79086 19.2091 2 17 2Z" stroke="#e9eaec" stroke-width="1.5" stroke-linecap="round" stroke-linejoin="round"/> <path d="M9 11H15" stroke="#e9eaec" stroke-width="1.5" stroke-linecap="round" stroke-linejoin="round"/> <path d="M21 13H19.85C19.2933 13.0008 18.7477 13.1564 18.2744 13.4496C17.8011 13.7428 17.4187 14.1618 17.17 14.6599L16.83 15.34C16.5813 15.8381 16.199 16.2572 15.7256 16.5504C15.2523 16.8436 14.7068 16.9992 14.15 17H9.85004C9.29329 16.9992 8.74772 16.8436 8.27441 16.5504C7.8011 16.2572 7.41873 15.8381 7.17004 15.34L6.83002 14.6599C6.58134 14.1618 6.19896 13.7428 5.72565 13.4496C5.25234 13.1564 4.70677 13.0008 4.15002 13H3" stroke="#e9eaec" stroke-width="1.5" stroke-linecap="round" stroke-linejoin="round"/> </g>
</svg>