<!DOCTYPE svg PUBLIC "-//W3C//DTD SVG 1.1//EN" "http://www.w3.org/Graphics/SVG/1.1/DTD/svg11.dtd">
<!-- Uploaded to: SVG Repo, www.svgrepo.com, Transformed by: SVG Repo Mixer Tools -->
<svg width="800px" height="800px" viewBox="0 0 24 24" fill="none" xmlns="http://www.w3.org/2000/svg">
<g id="SVGRepo_bgCarrier" stroke-width="0"/>
<g id="SVGRepo_tracerCarrier" stroke-linecap="round" stroke-linejoin="round"/>
<g id="SVGRepo_iconCarrier"> <path d="M20 4V20M9 10H15C15.5523 10 16 9.55228 16 9V5C16 4.44772 15.5523 4 15 4H9C8.44772 4 8 4.44772 8 5V9C8 9.55228 8.44772 10 9 10ZM5 20H15C15.5523 20 16 19.5523 16 19V15C16 14.4477 15.5523 14 15 14H5C4.44772 14 4 14.4477 4 15V19C4 19.5523 4.44772 20 5 20Z" stroke="#e9eaec" stroke-width="2" stroke-linecap="round" stroke-linejoin="round"/> </g>
</svg>