<!DOCTYPE svg PUBLIC "-//W3C//DTD SVG 1.1//EN" "http://www.w3.org/Graphics/SVG/1.1/DTD/svg11.dtd">
<!-- Uploaded to: SVG Repo, www.svgrepo.com, Transformed by: SVG Repo Mixer Tools -->
<svg fill="#596deb" width="800px" height="800px" viewBox="0 0 64 64" xmlns="http://www.w3.org/2000/svg" stroke="#596deb" stroke-width="0.00064">
<g id="SVGRepo_bgCarrier" stroke-width="0"/>
<g id="SVGRepo_tracerCarrier" stroke-linecap="round" stroke-linejoin="round"/>
<g id="SVGRepo_iconCarrier"> <g id="a"/> <g id="b"> <path d="M52.847,36.0669c-.3562-1.9042-1.3079-6.5956-2.3235-8.2681-1.6465-2.7109-3.2119-3.3213-4.4707-3.8125-.9062-.3535-1.4541-.5674-1.9814-1.5244-.3164-.5732-.5186-1.9775-.7139-3.3359-.4941-3.4297-1.1689-8.126-4.8574-8.126-5.8271,0-9.3262,12.0576-10.5596,17.2412l-.2129,.915c-.6309,2.7549-1.0225,4.041-1.9082,3.8896-.46-.0771-1.2295-2.2354-1.5996-3.2725-.9893-2.7744-2.1104-5.9199-4.8447-5.9199-3.4492,0-6.1279,5.9277-7.0869,9.9131-.5943,2.4711-1.0163,5.7875-1.1922,7.309-2.8799,.4383-5.0959,2.9239-5.0959,5.9244,0,3.3086,2.6914,6,6,6s6-2.6914,6-6c0-2.9299-2.1119-5.3718-4.8927-5.8932,.1844-1.5576,.5867-4.6308,1.1261-6.8724,.9531-3.9639,3.2998-8.3809,5.1416-8.3809,1.3242,0,2.2324,2.5459,2.9609,4.5918,.8232,2.3076,1.5332,4.2998,3.1494,4.5732,2.835,.4775,3.5576-2.6514,4.1914-5.416l.209-.8984c1.8604-7.8164,5.2461-15.7041,8.6143-15.7041,1.8086,0,2.373,2.9033,2.877,6.4111,.2412,1.6758,.4502,3.124,.9424,4.0176,.8779,1.5898,2.0088,2.0312,3.0068,2.4209,1.0781,.4209,2.1934,.8555,3.4883,2.9883,.7294,1.2015,1.5706,5.0206,2.0056,7.28-2.7452,.5497-4.82,2.9775-4.82,5.8821,0,3.3086,2.6914,6,6,6s6-2.6914,6-6c0-3.0204-2.2452-5.5195-5.153-5.9331Zm-36.847,10.9331c0,2.2061-1.7939,4-4,4s-4-1.7939-4-4,1.7939-4,4-4,4,1.7939,4,4Zm36-1c-2.2061,0-4-1.7939-4-4s1.7939-4,4-4,4,1.7939,4,4-1.7939,4-4,4Z"/> </g> </g>
</svg>