<!DOCTYPE svg PUBLIC "-//W3C//DTD SVG 1.1//EN" "http://www.w3.org/Graphics/SVG/1.1/DTD/svg11.dtd">
<!-- Uploaded to: SVG Repo, www.svgrepo.com, Transformed by: SVG Repo Mixer Tools -->
<svg width="800px" height="800px" viewBox="0 -0.5 25 25" fill="none" xmlns="http://www.w3.org/2000/svg">
<g id="SVGRepo_bgCarrier" stroke-width="0"/>
<g id="SVGRepo_tracerCarrier" stroke-linecap="round" stroke-linejoin="round"/>
<g id="SVGRepo_iconCarrier"> <path fill-rule="evenodd" clip-rule="evenodd" d="M9.69195 17.95C9.69084 18.5286 9.22115 18.9968 8.64261 18.996C8.06408 18.9953 7.59558 18.5259 7.59595 17.9474C7.59631 17.3688 8.06541 16.9 8.64395 16.9C8.92216 16.9003 9.18887 17.0111 9.38541 17.208C9.58195 17.4049 9.69221 17.6718 9.69195 17.95V17.95Z" stroke="#e9eaec" stroke-width="1.5" stroke-linecap="round" stroke-linejoin="round"/> <path fill-rule="evenodd" clip-rule="evenodd" d="M15.2811 17.95C15.28 18.5286 14.8103 18.9968 14.2317 18.996C13.6532 18.9953 13.1847 18.5259 13.1851 17.9474C13.1854 17.3688 13.6545 16.9 14.2331 16.9C14.5113 16.9003 14.778 17.0111 14.9745 17.208C15.1711 17.4049 15.2813 17.6718 15.2811 17.95V17.95Z" stroke="#e9eaec" stroke-width="1.5" stroke-linecap="round" stroke-linejoin="round"/> <path fill-rule="evenodd" clip-rule="evenodd" d="M19.1 7.80005H8.99297L8.29297 13.4C8.29297 14.1732 8.91977 14.8 9.69297 14.8H15.893C16.3846 14.7998 16.8401 14.5417 17.093 14.12L20.3 9.92005C20.5593 9.48764 20.566 8.9492 20.3177 8.51041C20.0693 8.07163 19.6042 7.80029 19.1 7.80005Z" stroke="#e9eaec" stroke-width="1.5" stroke-linecap="round" stroke-linejoin="round"/> <path d="M8.993 7.8L8.324 5.118C8.30611 5.04823 8.24303 4.99958 8.171 5H5.5" stroke="#e9eaec" stroke-width="1.5" stroke-linecap="round" stroke-linejoin="round"/> </g>
</svg>