<!DOCTYPE svg PUBLIC "-//W3C//DTD SVG 1.1//EN" "http://www.w3.org/Graphics/SVG/1.1/DTD/svg11.dtd">
<!-- Uploaded to: SVG Repo, www.svgrepo.com, Transformed by: SVG Repo Mixer Tools -->
<svg fill="#000000" width="800px" height="800px" viewBox="0 0 24 24" id="maximize-size" data-name="Flat Line" xmlns="http://www.w3.org/2000/svg" class="icon flat-line">
<g id="SVGRepo_bgCarrier" stroke-width="0"/>
<g id="SVGRepo_tracerCarrier" stroke-linecap="round" stroke-linejoin="round"/>
<g id="SVGRepo_iconCarrier">
<path id="primary" d="M9,9,3.29,3.29M15,9l5.71-5.71M9,15,3.29,20.71m17.42,0L15,15" style="fill: none; stroke: #e9eaec; stroke-linecap: round; stroke-linejoin: round; stroke-width: 2;"/>
<path id="primary-2" data-name="primary" d="M3,8V4A1,1,0,0,1,4,3H8" style="fill: none; stroke: #e9eaec; stroke-linecap: round; stroke-linejoin: round; stroke-width: 2;"/>
<path id="primary-3" data-name="primary" d="M16,3h4a1,1,0,0,1,1,1V8" style="fill: none; stroke: #e9eaec; stroke-linecap: round; stroke-linejoin: round; stroke-width: 2;"/>
<path id="primary-4" data-name="primary" d="M8,21H4a1,1,0,0,1-1-1V16" style="fill: none; stroke: #e9eaec; stroke-linecap: round; stroke-linejoin: round; stroke-width: 2;"/>
<path id="primary-5" data-name="primary" d="M21,16v4a1,1,0,0,1-1,1H16" style="fill: none; stroke: #e9eaec; stroke-linecap: round; stroke-linejoin: round; stroke-width: 2;"/>
</g>
</svg>