<!DOCTYPE svg PUBLIC "-//W3C//DTD SVG 1.1//EN" "http://www.w3.org/Graphics/SVG/1.1/DTD/svg11.dtd">
<!-- Uploaded to: SVG Repo, www.svgrepo.com, Transformed by: SVG Repo Mixer Tools -->
<svg fill="#e9eaec" height="800px" width="800px" version="1.1" id="Layer_1" xmlns="http://www.w3.org/2000/svg" xmlns:xlink="http://www.w3.org/1999/xlink" viewBox="-71.68 -71.68 655.36 655.36" xml:space="preserve" stroke="#e9eaec" stroke-width="32.256">
<g id="SVGRepo_bgCarrier" stroke-width="0"/>
<g id="SVGRepo_tracerCarrier" stroke-linecap="round" stroke-linejoin="round"/>
<g id="SVGRepo_iconCarrier"> <g> <g> <path d="M501.801,78.534H174.678c-4.957-33.988-34.286-60.175-69.626-60.175c-35.34,0-64.669,26.187-69.626,60.175H10.199 C4.567,78.534,0,83.1,0,88.733c0,5.633,4.567,10.199,10.199,10.199h25.227c4.957,33.988,34.286,60.175,69.626,60.175 c35.34,0,64.669-26.187,69.626-60.175h327.123c5.632,0,10.199-4.566,10.199-10.199C512,83.1,507.433,78.534,501.801,78.534z M105.052,138.709c-27.557,0-49.976-22.419-49.976-49.976c0-27.557,22.419-49.976,49.976-49.976 c27.557,0,49.976,22.419,49.976,49.976C155.028,116.29,132.609,138.709,105.052,138.709z"/> </g> </g> <g> <g> <path d="M501.801,245.801H406.2c-4.957-33.988-34.286-60.175-69.626-60.175c-35.34,0-64.669,26.188-69.626,60.175H10.199 C4.567,245.801,0,250.367,0,256c0,5.633,4.567,10.199,10.199,10.199h256.749c4.957,33.988,34.286,60.175,69.626,60.175 c35.34,0,64.669-26.188,69.626-60.175h95.601c5.632,0,10.199-4.566,10.199-10.199C512,250.367,507.433,245.801,501.801,245.801z M336.574,305.976c-27.557,0-49.976-22.419-49.976-49.976s22.419-49.976,49.976-49.976S386.55,228.443,386.55,256 S364.131,305.976,336.574,305.976z"/> </g> </g> <g> <g> <path d="M501.801,413.068h-5.1c-5.632,0-10.199,4.566-10.199,10.199c0,5.633,4.567,10.199,10.199,10.199h5.1 c5.632,0,10.199-4.566,10.199-10.199C512,417.634,507.433,413.068,501.801,413.068z"/> </g> </g> <g> <g> <path d="M457.944,413.068H255.251c-4.957-33.988-34.286-60.175-69.626-60.175c-35.34,0-64.669,26.187-69.626,60.175h-105.8 C4.567,413.068,0,417.634,0,423.267c0,5.633,4.567,10.199,10.199,10.199H116c4.957,33.988,34.286,60.175,69.626,60.175 c35.34,0,64.669-26.187,69.626-60.175h202.693c5.632,0,10.199-4.566,10.199-10.199 C468.143,417.634,463.576,413.068,457.944,413.068z M185.625,473.243c-27.557,0-49.976-22.419-49.976-49.976 c0-27.557,22.419-49.976,49.976-49.976c27.557,0,49.976,22.419,49.976,49.976C235.602,450.824,213.183,473.243,185.625,473.243z"/> </g> </g> </g>
</svg>