<!DOCTYPE svg PUBLIC "-//W3C//DTD SVG 1.1//EN" "http://www.w3.org/Graphics/SVG/1.1/DTD/svg11.dtd">
<!-- Uploaded to: SVG Repo, www.svgrepo.com, Transformed by: SVG Repo Mixer Tools -->
<svg fill="#e9eaec" version="1.1" id="Capa_1" xmlns="http://www.w3.org/2000/svg" xmlns:xlink="http://www.w3.org/1999/xlink" viewBox="0 0 411.125 411.125" xml:space="preserve" width="800px" height="800px">
<g id="SVGRepo_bgCarrier" stroke-width="0"/>
<g id="SVGRepo_tracerCarrier" stroke-linecap="round" stroke-linejoin="round"/>
<g id="SVGRepo_iconCarrier"> <g> <path d="M205.57,143.186c24.102-0.036,43.722-19.686,43.722-43.802V86.532c0-1.345-0.065-2.703-0.194-4.065h-6.018 c-10.394,0-14.003-9.89-15.737-16.05c-9.837,4.652-34.336,15.539-65.314,16.032c-0.13,1.368-0.195,2.732-0.195,4.083v12.852 C161.833,123.5,181.454,143.149,205.57,143.186z"/> <path d="M353.552,0H57.573c-11.028,0-20,8.972-20,20v371.125c0,11.028,8.972,20,20,20h295.979c11.028,0,20-8.972,20-20V20 C373.552,8.972,364.58,0,353.552,0z M333.711,361.374c0,8.25-6.75,15-15,15H92.414c-8.25,0-15-6.75-15-15V162.227 c0-8.25,5.922-11.761,13.16-7.802c0,0,21.436,11.723,48.545,22.056v-6.926c0-12.531,13.515-17.287,24.374-21.107 c2.538-0.893,5.429-1.91,7.726-2.937c-0.448-0.494-0.903-0.993-1.365-1.499c-9.407-10.318-20.065-22.009-20.134-42.636 c-0.123-1.566-0.967-12.344-1.265-16.166c-2.829-36.392,15.333-41.987,42.825-50.457c4.045-1.246,8.228-2.535,12.711-4.021 c5.769-1.912,11.435-2.881,16.841-2.881c11.475,0,21.511,4.292,29.025,12.412c9.702,10.485,14.253,26.447,12.815,44.946 c-0.297,3.822-1.142,14.6-1.265,16.166c-0.069,20.627-10.727,32.317-20.134,42.636c-0.461,0.506-0.917,1.005-1.365,1.499 c2.297,1.026,5.188,2.044,7.726,2.937c10.859,3.82,24.374,8.576,24.374,21.107l0,7.186c27.13-10.37,48.583-22.249,48.583-22.249 c7.217-3.997,13.122-0.516,13.122,7.734V361.374z"/> <rect x="113.633" y="225.835" width="183.859" height="36.743"/> <rect x="113.633" y="295.835" width="183.859" height="36.743"/> <polygon points="205.563,196.189 239.602,160.085 171.523,160.085 "/> </g> </g>
</svg>