<!DOCTYPE svg PUBLIC "-//W3C//DTD SVG 1.1//EN" "http://www.w3.org/Graphics/SVG/1.1/DTD/svg11.dtd">
<!-- Uploaded to: SVG Repo, www.svgrepo.com, Transformed by: SVG Repo Mixer Tools -->
<svg fill="#e9eaec" width="800px" height="800px" viewBox="0 0 24.00 24.00" xmlns="http://www.w3.org/2000/svg" id="scan" class="icon glyph" stroke="#e9eaec" stroke-width="0.00024000000000000003">
<g id="SVGRepo_bgCarrier" stroke-width="0"/>
<g id="SVGRepo_tracerCarrier" stroke-linecap="round" stroke-linejoin="round" stroke="#CCCCCC" stroke-width="0.192"/>
<g id="SVGRepo_iconCarrier">
<path d="M3,8A1,1,0,0,1,2,7V4A2,2,0,0,1,4,2H7A1,1,0,0,1,7,4H4V7A1,1,0,0,1,3,8Z"/>
<path d="M21,8a1,1,0,0,1-1-1V4H17a1,1,0,0,1,0-2h3a2,2,0,0,1,2,2V7A1,1,0,0,1,21,8Z"/>
<path d="M7,22H4a2,2,0,0,1-2-2V17a1,1,0,0,1,2,0v3H7a1,1,0,0,1,0,2Z"/>
<path d="M20,22H17a1,1,0,0,1,0-2h3V17a1,1,0,0,1,2,0v3A2,2,0,0,1,20,22Z"/>
<path d="M21,13H3a1,1,0,0,1,0-2H21a1,1,0,0,1,0,2Z"/>
</g>
</svg>