<?xml version="1.0" encoding="UTF-8" standalone="no"?>
<!DOCTYPE svg PUBLIC "-//W3C//DTD SVG 1.1//EN" "http://www.w3.org/Graphics/SVG/1.1/DTD/svg11.dtd">
<svg xmlns="http://www.w3.org/2000/svg" version="1.1" viewBox="0.00 0.00 500.00 500.00">
<path fill="#586ae9" d="
  M 227.77 250.27
  A 0.45 0.45 0.0 0 0 228.21 250.98
  C 230.31 250.66 232.20 250.14 234.04 248.85
  C 244.43 241.60 255.98 234.76 265.76 228.09
  C 279.43 218.74 290.89 211.84 302.82 204.58
  C 311.70 199.17 320.72 194.40 329.48 188.93
  C 345.75 178.77 362.73 168.78 375.82 156.40
  C 385.56 147.21 393.19 136.17 403.13 127.14
  C 408.40 122.35 414.66 117.99 417.98 111.21
  C 422.05 102.89 419.41 93.46 413.55 86.66
  C 408.47 80.79 400.46 75.36 392.24 76.77
  C 376.63 79.46 364.05 93.54 368.22 110.09
  Q 370.33 118.48 374.32 125.95
  Q 375.48 128.13 373.11 128.83
  C 364.15 131.47 359.28 114.80 357.97 109.04
  Q 356.69 103.40 357.69 97.93
  C 359.26 89.34 362.87 81.49 369.45 75.72
  C 374.80 71.03 382.00 67.24 389.25 66.71
  C 397.45 66.11 405.90 66.86 413.05 70.87
  C 425.37 77.78 430.73 90.24 429.77 104.69
  C 429.28 112.15 426.84 119.68 421.93 125.19
  C 415.56 132.33 404.68 136.66 397.77 142.52
  C 394.12 145.62 389.19 151.39 385.85 156.24
  C 378.03 167.62 370.54 178.98 361.83 189.84
  Q 342.21 214.31 336.89 221.89
  Q 323.19 241.45 312.87 252.88
  C 305.87 260.63 300.78 266.78 294.36 274.12
  C 287.87 281.52 282.84 289.57 276.58 296.82
  C 272.38 301.69 268.65 306.60 264.18 311.47
  C 258.91 317.21 254.60 323.10 249.23 329.32
  C 246.49 332.50 244.19 336.11 241.47 339.12
  C 236.30 344.82 231.24 351.48 226.57 356.70
  C 221.70 362.14 216.97 367.62 211.80 372.77
  C 202.04 382.51 192.37 392.84 182.04 401.38
  Q 167.56 413.36 155.48 421.72
  C 146.49 427.94 133.53 434.17 122.03 436.13
  Q 117.39 436.92 111.48 436.16
  C 99.16 434.57 83.15 430.46 84.16 413.99
  C 85.30 395.44 94.25 381.76 103.71 366.95
  Q 104.95 365.00 106.44 363.28
  A 1.72 1.72 0.0 0 0 105.57 360.49
  C 101.38 359.40 97.44 354.81 94.68 351.60
  A 0.63 0.62 -48.3 0 1 94.64 350.82
  C 96.31 348.41 100.87 344.07 104.18 345.16
  C 107.23 346.17 110.10 349.78 112.33 352.16
  A 0.60 0.60 0.0 0 0 113.34 351.95
  C 114.67 348.06 117.79 344.23 120.05 340.80
  C 126.84 330.51 136.15 322.00 140.94 310.44
  C 141.19 309.82 141.30 308.63 141.11 307.84
  Q 138.89 298.80 137.19 294.55
  Q 129.67 275.76 109.48 271.00
  Q 107.86 270.62 106.86 270.84
  C 87.88 275.09 71.56 290.40 65.95 308.75
  C 62.17 321.12 64.61 334.40 71.37 345.12
  Q 72.49 346.90 70.41 347.14
  Q 69.57 347.24 67.88 347.27
  C 46.05 347.62 24.37 347.67 2.55 347.07
  A 0.84 0.84 0.0 0 1 1.83 345.84
  Q 3.22 343.18 5.40 340.90
  C 16.61 329.19 27.86 317.33 40.08 306.67
  C 47.70 300.02 54.93 293.62 62.29 286.13
  C 74.16 274.06 85.47 261.56 103.75 260.35
  C 112.25 259.79 120.48 260.45 127.81 264.92
  Q 142.41 273.81 148.26 289.72
  C 148.97 291.67 148.91 293.85 149.16 295.95
  C 149.39 297.92 150.80 298.79 152.52 297.58
  Q 155.08 295.76 158.37 291.87
  Q 166.41 282.38 174.13 272.63
  C 175.61 270.77 177.82 268.75 179.42 266.61
  C 184.16 260.27 189.68 254.41 194.42 248.38
  C 198.28 243.47 202.73 238.60 206.28 233.99
  Q 210.72 228.21 215.15 222.43
  C 218.59 217.93 224.19 209.60 229.40 203.67
  Q 230.43 202.49 230.71 201.63
  Q 231.14 200.29 229.95 201.04
  Q 224.04 204.80 218.45 209.42
  Q 207.19 218.75 195.16 222.72
  C 192.55 223.58 186.35 220.29 184.01 218.73
  C 179.06 215.44 176.13 210.24 174.30 204.73
  C 172.39 199.01 178.18 189.95 181.90 185.88
  C 192.60 174.16 205.86 165.96 219.32 157.81
  C 232.68 149.72 247.51 143.71 263.07 141.56
  Q 268.66 140.79 271.45 141.02
  C 277.58 141.55 286.54 145.01 287.79 152.07
  C 291.14 171.08 281.19 187.68 269.30 201.92
  C 260.78 212.12 252.48 222.49 244.12 232.82
  C 239.07 239.07 232.38 243.73 227.77 250.27
  Z
  M 194.54 210.32
  C 206.61 203.79 218.33 196.43 230.01 189.22
  Q 237.99 184.29 246.67 176.39
  Q 256.14 167.77 255.75 154.80
  A 1.27 1.26 81.8 0 0 254.17 153.61
  C 251.63 154.28 249.79 155.40 247.67 156.41
  C 236.73 161.64 182.38 189.65 186.37 204.29
  C 187.38 208.00 189.69 212.94 194.54 210.32
  Z
  M 163.66 331.48
  Q 161.38 334.06 164.46 332.52
  C 168.93 330.28 174.01 325.85 177.25 323.56
  C 186.13 317.29 194.46 311.22 203.98 304.94
  Q 220.34 294.16 235.93 282.30
  C 244.59 275.71 252.61 270.12 261.00 264.10
  C 272.82 255.62 283.18 243.93 293.48 233.67
  C 295.96 231.20 297.94 228.40 300.14 225.65
  C 302.88 222.21 306.91 218.91 309.77 215.18
  Q 311.65 212.72 308.89 214.13
  C 304.77 216.22 300.16 220.09 297.01 222.24
  Q 287.49 228.72 277.90 235.10
  C 267.95 241.72 257.38 247.89 247.00 254.12
  C 240.46 258.04 233.79 262.66 227.15 266.89
  Q 209.48 278.16 196.05 294.06
  C 189.23 302.12 183.19 309.04 176.92 316.64
  C 172.90 321.52 168.12 326.44 163.66 331.48
  Z
  M 255.74 282.46
  C 254.72 282.77 252.91 284.36 252.04 285.09
  Q 246.95 289.42 241.57 293.37
  Q 218.11 310.63 194.28 327.37
  Q 186.83 332.61 179.31 338.22
  C 166.60 347.72 156.35 354.41 144.80 362.43
  C 136.89 367.91 130.83 378.82 126.47 387.21
  C 121.01 397.72 115.44 408.19 111.86 419.52
  C 110.60 423.49 114.00 426.74 117.08 428.66
  Q 117.50 428.91 117.94 428.72
  Q 128.84 424.08 135.84 418.85
  C 141.95 414.28 148.72 409.59 154.02 404.93
  Q 165.77 394.61 175.25 382.14
  C 186.50 367.34 198.88 353.71 211.04 339.88
  C 220.27 329.39 227.80 317.35 236.68 306.92
  Q 248.35 293.21 255.96 283.72
  Q 256.30 283.28 256.29 282.85
  Q 256.26 282.30 255.74 282.46
  Z"
/>
<path fill="#586ae9" d="
  M 328.74 105.54
  C 318.11 98.39 305.01 95.57 292.63 93.08
  C 281.32 90.81 269.30 88.37 258.34 87.79
  C 246.68 87.18 235.84 87.60 224.03 89.95
  C 203.80 93.99 183.21 98.50 165.68 110.19
  C 151.46 119.67 139.31 128.52 128.48 140.88
  C 110.37 161.56 98.88 184.90 91.22 210.94
  C 88.18 221.28 86.45 232.02 85.01 242.74
  C 84.42 247.08 83.91 252.08 77.52 250.27
  A 0.91 0.90 88.7 0 1 76.90 249.67
  Q 76.42 248.13 76.49 247.00
  Q 76.89 240.36 77.82 231.15
  C 80.31 206.61 89.48 182.24 102.13 161.20
  C 106.12 154.55 111.43 147.63 116.29 141.02
  C 122.06 133.19 128.28 126.09 135.10 120.60
  C 140.96 115.90 146.95 110.90 153.02 106.95
  Q 171.49 94.91 189.74 88.27
  Q 193.49 86.90 207.02 83.34
  C 218.45 80.34 229.82 79.66 241.54 79.02
  C 252.85 78.41 264.41 79.73 275.88 80.58
  Q 282.48 81.08 300.38 85.38
  Q 315.75 89.07 333.18 96.98
  Q 336.67 98.56 334.93 101.97
  L 333.77 104.24
  Q 331.99 107.73 328.74 105.54
  Z"
/>
<path fill="#586ae9" d="
  M 416.18 234.35
  C 426.83 225.14 434.45 209.11 434.20 195.00
  Q 434.00 184.43 432.24 173.07
  A 1.34 1.34 0.0 0 1 433.41 171.53
  Q 434.03 171.46 435.25 171.45
  Q 464.85 171.09 494.23 171.23
  A 0.37 0.36 22.5 0 1 494.49 171.85
  Q 483.31 183.42 471.87 194.64
  C 463.18 203.17 450.94 213.14 441.51 223.87
  Q 431.11 235.71 430.10 236.75
  C 424.33 242.70 418.19 248.84 411.30 252.38
  C 405.54 255.35 398.77 256.58 392.36 257.08
  C 388.54 257.38 384.85 256.52 381.01 255.92
  C 368.64 253.98 357.12 242.54 355.32 229.89
  C 353.61 217.87 359.27 207.50 369.63 200.63
  A 1.44 1.41 30.4 0 1 370.56 200.40
  Q 374.37 200.79 376.23 203.53
  C 381.11 210.72 370.81 212.34 368.60 218.25
  C 362.98 233.26 372.90 243.45 386.37 247.57
  Q 389.33 248.47 392.18 247.79
  C 400.90 245.71 409.62 240.04 416.18 234.35
  Z"
/>
<path fill="#586ae9" d="
  M 393.04 348.81
  C 404.91 330.11 411.29 308.36 414.89 286.47
  Q 416.41 277.29 417.78 268.11
  Q 418.49 263.41 422.93 262.67
  A 1.29 1.28 82.9 0 1 424.43 263.84
  C 425.68 279.54 424.49 294.85 420.02 310.16
  C 412.80 334.84 400.79 356.85 385.00 377.01
  Q 369.81 396.41 346.52 410.51
  C 327.66 421.94 307.31 431.39 285.49 435.47
  C 278.36 436.81 271.26 438.15 264.12 438.47
  Q 251.32 439.05 238.55 438.08
  C 234.01 437.74 229.20 436.52 224.50 435.75
  Q 202.79 432.21 177.25 420.04
  Q 173.83 418.41 176.53 415.74
  L 178.43 413.87
  Q 181.04 411.28 184.42 412.74
  Q 203.53 421.02 220.76 425.18
  C 239.42 429.68 256.16 430.48 275.13 427.87
  Q 290.17 425.80 311.66 417.70
  Q 340.16 406.96 362.32 386.05
  Q 380.00 369.36 393.04 348.81
  Z"
/>
</svg>
