<?xml version="1.0" encoding="UTF-8" standalone="no"?>
<!DOCTYPE svg PUBLIC "-//W3C//DTD SVG 1.1//EN" "http://www.w3.org/Graphics/SVG/1.1/DTD/svg11.dtd">
<svg xmlns="http://www.w3.org/2000/svg" version="1.1" viewBox="0.00 0.00 370.00 370.00">
<g stroke-width="2.00" fill="none" stroke-linecap="butt">
<path stroke="#7f80d9" vector-effect="non-scaling-stroke" d="
  M 43.96 39.99
  L 40.04 40.07"
/>
<path stroke="#0000a2" vector-effect="non-scaling-stroke" d="
  M 109.98 56.52
  Q 106.41 60.05 103.00 58.13
  Q 102.66 57.94 102.29 58.08
  Q 102.09 58.16 102.07 58.33
  Q 101.97 59.33 101.51 58.44
  Q 100.87 57.21 100.01 56.07"
/>
<path stroke="#0000a2" vector-effect="non-scaling-stroke" d="
  M 88.27 100.02
  Q 86.75 103.93 87.53 108.42
  Q 87.56 108.62 87.37 108.67
  Q 87.19 108.72 87.23 108.85
  Q 87.41 109.40 88.05 109.38
  Q 87.84 109.34 87.77 109.46
  Q 87.65 109.68 87.87 109.79
  L 88.21 109.96"
/>
<path stroke="#000087" vector-effect="non-scaling-stroke" d="
  M 139.99 80.02
  Q 137.63 81.05 135.58 81.27
  Q 134.23 81.41 133.01 80.97
  Q 132.16 80.66 131.49 81.14
  Q 130.78 81.65 130.80 80.77
  Q 130.84 79.10 130.03 80.49"
/>
<path stroke="#0000a2" vector-effect="non-scaling-stroke" d="
  M 318.48 109.97
  Q 316.96 108.84 316.95 105.19
  Q 316.94 104.27 317.27 103.48
  Q 317.67 102.49 317.52 101.39
  Q 317.45 100.88 317.97 100.88
  L 318.55 100.88
  Q 319.03 100.88 319.13 100.40
  L 319.21 100.01"
/>
<path stroke="#0000a2" vector-effect="non-scaling-stroke" d="
  M 269.98 55.71
  Q 269.19 57.23 267.98 57.23
  Q 266.60 57.24 265.23 57.55
  Q 264.68 57.67 264.15 57.52
  Q 263.05 57.20 262.04 57.52
  Q 261.55 57.67 261.15 57.37
  Q 260.64 56.98 260.03 56.78"
/>
<path stroke="#00005b" vector-effect="non-scaling-stroke" d="
  M 120.02 140.00
  Q 119.96 144.13 120.26 145.24
  Q 120.88 147.46 121.25 149.99"
/>
<path stroke="#000097" vector-effect="non-scaling-stroke" d="
  M 290.17 127.89
  Q 290.74 128.62 290.96 129.58
  Q 291.06 130.02 290.64 130.18
  Q 290.43 130.25 290.23 130.35
  Q 289.96 130.49 290.23 130.63
  Q 290.28 130.66 290.33 130.65
  Q 290.90 130.59 290.87 131.14
  Q 290.79 132.35 291.38 133.41
  A 0.88 0.84 32.3 0 1 291.48 133.81
  L 291.48 137.57
  Q 291.48 138.02 291.18 138.36
  Q 290.57 139.05 290.55 139.99"
/>
<path stroke="#000087" vector-effect="non-scaling-stroke" d="
  M 289.88 179.95
  Q 286.82 177.28 287.63 171.67
  Q 287.66 171.45 287.48 171.35
  Q 287.27 171.24 287.12 171.08
  A 0.06 0.06 0.0 0 1 287.13 170.99
  Q 288.61 169.97 287.73 170.03"
/>
<path stroke="#000075" vector-effect="non-scaling-stroke" d="
  M 269.82 240.03
  Q 269.67 240.76 269.11 241.50
  Q 268.55 242.25 268.39 242.89
  Q 267.52 246.35 267.03 250.00"
/>
<path stroke="#000075" vector-effect="non-scaling-stroke" d="
  M 249.97 277.57
  Q 249.61 276.64 249.55 275.46
  Q 249.50 274.49 248.92 275.27
  L 248.37 275.99
  Q 248.26 276.14 248.25 276.14
  Q 248.11 276.13 248.01 276.03
  Q 247.78 275.77 247.44 275.73
  Q 241.47 275.02 234.47 274.81
  Q 233.15 274.77 232.04 274.27
  A 0.56 0.55 18.3 0 0 231.27 274.65
  Q 231.18 275.03 231.06 274.84
  Q 230.61 274.11 230.46 274.97
  Q 230.33 275.68 230.04 276.24"
/>
<path stroke="#0000a2" vector-effect="non-scaling-stroke" d="
  M 259.99 309.55
  Q 259.55 309.39 259.25 309.37
  Q 259.03 309.36 259.22 309.26
  Q 259.28 309.23 259.28 309.17
  Q 259.29 308.89 259.02 308.96
  C 257.11 309.43 255.61 308.77 253.73 308.95
  Q 252.70 309.05 251.72 309.07
  Q 246.90 309.13 242.38 309.29
  Q 242.32 309.29 242.27 309.34
  Q 242.17 309.45 242.14 309.58
  Q 242.07 309.98 241.69 309.85
  Q 240.40 309.41 239.98 309.93"
/>
<path stroke="#00004b" vector-effect="non-scaling-stroke" d="
  M 130.02 249.92
  Q 128.57 247.96 129.13 247.10
  Q 129.37 246.73 129.15 246.35
  Q 127.98 244.35 128.66 241.98
  A 0.45 0.45 0.0 0 0 128.09 241.43
  Q 127.83 241.51 127.88 241.88
  Q 128.02 240.00 127.12 238.50
  A 1.39 1.35 -62.4 0 1 126.92 237.82
  L 126.72 225.76
  Q 126.72 225.31 126.97 224.95
  Q 127.32 224.43 127.16 223.73
  Q 126.84 222.30 126.05 220.99
  Q 125.80 220.58 125.33 220.47
  L 123.77 220.13"
/>
<path stroke="#0000a2" vector-effect="non-scaling-stroke" d="
  M 73.95 260.02
  Q 73.19 260.61 74.86 260.72
  A 0.06 0.06 0.0 0 1 74.90 260.81
  Q 74.75 261.00 74.54 261.14
  Q 74.07 261.42 74.08 261.96
  Q 74.13 265.04 75.27 267.76
  Q 75.38 268.04 75.41 268.33
  Q 75.42 268.43 75.36 268.52
  Q 74.88 269.15 75.73 269.30
  Q 76.32 269.40 76.20 270.01"
/>
<path stroke="#0000a2" vector-effect="non-scaling-stroke" d="
  M 100.04 310.81
  L 100.43 306.84
  Q 100.48 306.36 100.95 306.40
  L 109.98 307.16"
/>
</g>
<path fill="#fefffe" d="
  M 43.96 39.99
  L 40.04 40.07
  Q 39.54 39.96 39.09 40.44
  C 38.55 41.01 38.00 41.32 37.19 41.21
  Q 36.55 41.13 36.76 40.52
  Q 37.23 39.09 38.37 38.01
  A 0.82 0.82 0.0 0 1 39.51 38.03
  L 39.99 38.51
  Q 40.87 39.38 41.90 38.70
  Q 42.70 38.17 43.54 38.32
  Q 44.24 38.45 44.12 39.14
  L 43.96 39.99
  Z"
/>
<path fill="#0000b4" d="
  M 43.96 39.99
  L 109.40 40.03
  Q 109.91 40.03 109.91 40.54
  L 109.98 56.52
  Q 106.41 60.05 103.00 58.13
  Q 102.66 57.94 102.29 58.08
  Q 102.09 58.16 102.07 58.33
  Q 101.97 59.33 101.51 58.44
  Q 100.87 57.21 100.01 56.07
  L 99.96 50.49
  Q 99.95 50.00 99.47 50.00
  L 50.50 50.00
  Q 50.00 50.00 50.00 50.50
  L 50.00 99.28
  A 0.73 0.73 0.0 0 0 50.73 100.01
  L 88.27 100.02
  Q 86.75 103.93 87.53 108.42
  Q 87.56 108.62 87.37 108.67
  Q 87.19 108.72 87.23 108.85
  Q 87.41 109.40 88.05 109.38
  Q 87.84 109.34 87.77 109.46
  Q 87.65 109.68 87.87 109.79
  L 88.21 109.96
  L 40.58 109.92
  Q 40.08 109.92 40.08 109.42
  L 40.04 40.07
  L 43.96 39.99
  Z"
/>
<path fill="#0000b4" d="
  M 139.99 80.02
  Q 137.63 81.05 135.58 81.27
  Q 134.23 81.41 133.01 80.97
  Q 132.16 80.66 131.49 81.14
  Q 130.78 81.65 130.80 80.77
  Q 130.84 79.10 130.03 80.49
  Q 130.16 80.43 130.05 80.22
  A 0.35 0.33 78.0 0 0 129.76 80.02
  Q 127.74 79.91 125.71 80.03
  C 122.86 80.20 120.00 77.88 120.00 74.93
  Q 120.00 59.66 120.00 44.79
  Q 120.01 43.29 121.07 42.09
  Q 124.17 38.62 127.57 40.84
  C 128.93 41.74 130.04 43.27 130.02 44.96
  Q 129.96 52.12 130.01 58.76
  Q 130.02 60.00 131.27 60.00
  L 138.75 60.00
  Q 140.00 60.00 140.00 58.75
  L 140.00 45.23
  A 5.26 5.26 0.0 0 1 145.44 39.97
  Q 149.19 40.09 153.99 39.94
  C 159.13 39.79 162.52 45.53 157.81 49.02
  C 155.72 50.56 152.97 49.93 150.53 49.98
  Q 150.00 50.00 149.99 50.53
  Q 149.96 62.28 150.02 74.73
  Q 150.03 76.59 148.87 78.00
  Q 147.26 79.96 144.27 79.93
  Q 142.01 79.91 139.99 80.02
  Z"
/>
<circle fill="#0000b4" cx="175.00" cy="45.01" r="4.94"/>
<path fill="#0000b4" d="
  M 209.46 59.99
  Q 207.74 59.95 205.81 60.04
  C 202.83 60.19 199.93 57.90 199.97 54.80
  Q 200.03 49.99 199.98 45.46
  A 5.44 5.44 0.0 0 1 205.51 39.95
  Q 214.40 40.10 223.75 39.91
  Q 225.89 39.87 227.32 40.72
  C 230.64 42.73 231.01 46.52 227.80 48.98
  C 225.72 50.58 222.95 49.93 220.51 49.98
  Q 219.97 50.00 219.98 50.54
  Q 220.04 58.49 219.97 65.33
  Q 219.95 66.74 218.94 67.89
  Q 215.53 71.76 211.78 68.64
  C 209.30 66.58 210.01 63.41 210.03 60.58
  Q 210.04 60.00 209.46 59.99
  Z"
/>
<path fill="#0000b4" d="
  M 318.48 109.97
  Q 316.96 108.84 316.95 105.19
  Q 316.94 104.27 317.27 103.48
  Q 317.67 102.49 317.52 101.39
  Q 317.45 100.88 317.97 100.88
  L 318.55 100.88
  Q 319.03 100.88 319.13 100.40
  L 319.21 100.01
  Q 319.39 100.00 319.57 99.93
  A 0.70 0.69 -11.5 0 0 320.00 99.29
  L 320.00 50.50
  Q 320.00 50.00 319.50 50.00
  L 270.54 50.00
  Q 270.05 50.00 270.05 50.48
  L 269.98 55.71
  Q 269.19 57.23 267.98 57.23
  Q 266.60 57.24 265.23 57.55
  Q 264.68 57.67 264.15 57.52
  Q 263.05 57.20 262.04 57.52
  Q 261.55 57.67 261.15 57.37
  Q 260.64 56.98 260.03 56.78
  L 260.03 40.26
  A 0.26 0.26 0.0 0 1 260.29 40.00
  L 329.50 40.00
  Q 330.00 40.00 330.00 40.50
  L 330.00 109.49
  A 0.47 0.46 -0.0 0 1 329.53 109.95
  L 318.48 109.97
  Z"
/>
<rect fill="#0000b4" x="160.06" y="50.10" width="9.88" height="19.80" rx="4.70"/>
<path fill="#00007a" d="
  M 190.70 80.04
  C 192.94 80.00 195.71 79.52 197.63 80.88
  C 202.13 84.09 199.55 90.22 194.50 90.04
  Q 192.50 89.97 190.54 89.98
  Q 190.00 89.98 190.00 90.52
  L 189.99 108.50
  Q 189.99 110.01 191.50 110.01
  L 198.83 110.00
  Q 200.36 110.00 200.10 108.50
  Q 199.53 105.11 200.50 103.13
  C 203.07 97.89 210.29 99.94 210.04 105.46
  Q 209.95 107.49 209.98 109.45
  Q 209.99 109.99 210.52 110.01
  C 214.04 110.12 217.00 109.14 219.31 112.64
  Q 220.03 113.73 220.02 115.10
  Q 219.99 120.34 219.97 124.89
  A 5.10 5.09 0.3 0 1 214.82 129.97
  Q 210.82 129.93 206.09 130.07
  Q 204.06 130.13 202.67 129.30
  C 199.22 127.24 200.00 123.86 200.04 120.55
  A 0.56 0.55 -90.0 0 0 199.49 119.99
  L 185.25 119.99
  A 5.25 5.24 0.0 0 1 180.00 114.75
  L 180.00 100.53
  Q 180.00 100.01 179.48 99.99
  C 177.42 99.91 174.85 100.42 173.01 99.51
  C 171.34 98.68 169.97 96.90 169.98 94.96
  Q 170.03 84.97 169.98 75.05
  C 169.97 73.20 171.11 71.59 172.66 70.67
  C 174.57 69.53 177.25 70.08 179.44 70.01
  Q 180.03 69.99 180.03 69.40
  Q 179.99 62.88 179.95 55.21
  Q 179.94 53.69 180.73 52.51
  C 183.80 47.98 190.03 50.16 190.02 55.38
  Q 190.00 67.90 189.99 79.34
  Q 189.99 80.05 190.70 80.04
  Z"
/>
<path fill="#000090" d="
  M 240.65 60.04
  C 242.78 60.04 245.59 59.52 247.48 60.77
  C 250.63 62.84 251.01 66.61 247.86 68.99
  C 245.76 70.57 243.00 69.93 240.53 69.98
  Q 239.99 69.99 239.98 70.54
  C 239.93 73.91 240.89 77.30 237.27 79.37
  C 235.42 80.42 232.67 79.99 230.56 79.97
  Q 229.99 79.97 229.98 80.53
  C 229.94 82.77 230.54 85.77 229.11 87.64
  C 226.55 90.97 222.64 90.71 220.62 87.23
  Q 219.95 86.08 219.97 84.85
  Q 220.06 80.36 219.95 75.23
  C 219.90 72.59 222.36 69.95 225.02 69.98
  Q 227.25 70.01 229.45 70.02
  Q 230.00 70.02 230.00 69.46
  Q 230.01 62.19 229.97 55.05
  Q 229.97 53.54 230.88 52.31
  C 233.37 48.99 237.09 49.31 239.35 52.70
  C 240.46 54.37 239.99 57.45 239.98 59.36
  Q 239.97 60.04 240.65 60.04
  Z"
/>
<path fill="#000090" d="
  M 269.98 55.71
  L 269.97 98.81
  A 1.21 1.21 0.0 0 0 271.18 100.02
  L 319.21 100.01
  L 319.13 100.40
  Q 319.03 100.88 318.55 100.88
  L 317.97 100.88
  Q 317.45 100.88 317.52 101.39
  Q 317.67 102.49 317.27 103.48
  Q 316.94 104.27 316.95 105.19
  Q 316.96 108.84 318.48 109.97
  L 260.60 109.91
  Q 260.09 109.91 260.09 109.40
  L 260.03 56.78
  Q 260.64 56.98 261.15 57.37
  Q 261.55 57.67 262.04 57.52
  Q 263.05 57.20 264.15 57.52
  Q 264.68 57.67 265.23 57.55
  Q 266.60 57.24 267.98 57.23
  Q 269.19 57.23 269.98 55.71
  Z"
/>
<path fill="#000090" d="
  M 100.01 56.07
  Q 100.87 57.21 101.51 58.44
  Q 101.97 59.33 102.07 58.33
  Q 102.09 58.16 102.29 58.08
  Q 102.66 57.94 103.00 58.13
  Q 106.41 60.05 109.98 56.52
  L 109.92 109.42
  Q 109.92 109.92 109.41 109.92
  L 88.21 109.96
  L 87.87 109.79
  Q 87.65 109.68 87.77 109.46
  Q 87.84 109.34 88.05 109.38
  Q 87.41 109.40 87.23 108.85
  Q 87.19 108.72 87.37 108.67
  Q 87.56 108.62 87.53 108.42
  Q 86.75 103.93 88.27 100.02
  L 99.33 99.99
  A 0.69 0.69 0.0 0 0 100.02 99.30
  L 100.01 56.07
  Z"
/>
<rect fill="#000090" x="59.99" y="59.99" width="30.10" height="30.00" rx="0.74"/>
<rect fill="#000090" x="280.00" y="60.00" width="30.06" height="30.00" rx="0.56"/>
<circle fill="#000090" cx="205.00" cy="75.00" r="4.95"/>
<path fill="#000059" d="
  M 139.99 80.02
  L 140.03 89.46
  Q 140.03 89.98 140.56 90.00
  C 142.83 90.09 145.88 89.46 147.73 90.92
  C 148.99 91.92 150.00 93.29 150.01 94.94
  Q 150.01 102.06 149.99 108.78
  Q 149.98 110.00 151.20 110.00
  L 159.01 110.00
  Q 160.22 110.00 160.11 108.80
  C 159.92 106.86 159.58 104.15 160.80 102.45
  C 163.06 99.32 166.58 99.09 169.03 102.21
  Q 170.03 103.47 170.02 105.00
  Q 169.96 114.59 170.02 124.85
  C 170.03 128.20 166.48 130.90 163.38 129.65
  C 159.84 128.23 159.59 124.65 160.11 121.27
  Q 160.30 120.00 159.02 120.00
  L 150.99 120.00
  Q 149.70 120.00 149.88 121.28
  C 150.33 124.39 150.37 127.36 147.40 129.29
  C 144.24 131.34 140.00 128.53 139.99 124.95
  Q 139.99 113.06 140.02 101.00
  Q 140.02 100.00 139.01 100.00
  L 131.15 100.00
  Q 129.67 100.00 129.91 101.46
  Q 130.42 104.57 129.64 106.61
  C 127.46 112.30 119.77 110.22 119.95 104.44
  Q 120.09 99.77 119.96 95.14
  Q 119.92 93.61 120.88 92.35
  C 123.23 89.24 126.04 90.01 129.40 90.02
  Q 129.97 90.02 129.98 89.45
  L 130.03 80.49
  Q 130.84 79.10 130.80 80.77
  Q 130.78 81.65 131.49 81.14
  Q 132.16 80.66 133.01 80.97
  Q 134.23 81.41 135.58 81.27
  Q 137.63 81.05 139.99 80.02
  Z"
/>
<circle fill="#000090" cx="154.99" cy="84.99" r="4.94"/>
<path fill="#000059" d="
  M 239.28 99.96
  C 236.95 99.96 234.29 100.51 232.30 99.08
  C 227.41 95.60 230.86 89.74 236.05 89.93
  Q 240.49 90.08 244.86 90.01
  A 5.05 5.05 0.0 0 1 250.00 95.06
  L 250.00 124.74
  A 5.28 5.28 0.0 0 1 244.71 130.02
  Q 239.76 130.00 234.89 129.99
  Q 233.21 129.98 231.95 128.80
  Q 228.43 125.53 231.11 122.06
  C 233.26 119.28 236.46 120.02 239.46 120.02
  Q 240.00 120.02 240.00 119.48
  L 240.00 100.68
  Q 240.00 99.97 239.28 99.96
  Z"
/>
<circle fill="#000059" cx="225.01" cy="105.00" r="4.95"/>
<path fill="#0000b4" d="
  M 59.48 140.00
  L 45.13 140.00
  A 5.13 5.12 -0.0 0 1 40.00 134.88
  L 40.00 125.25
  A 5.23 5.23 0.0 0 1 45.21 120.02
  Q 49.90 120.00 54.00 119.98
  Q 55.87 119.98 56.91 120.49
  C 60.93 122.47 59.84 125.94 59.98 129.47
  Q 60.00 129.99 60.52 130.01
  Q 62.27 130.07 64.17 129.96
  C 67.16 129.79 70.14 132.14 70.04 135.27
  Q 69.90 139.74 70.05 144.46
  C 70.18 148.25 66.24 151.30 62.81 149.41
  C 59.17 147.41 60.04 143.89 60.02 140.55
  Q 60.02 140.00 59.48 140.00
  Z"
/>
<path fill="#00007a" d="
  M 120.02 140.00
  Q 119.96 144.13 120.26 145.24
  Q 120.88 147.46 121.25 149.99
  L 85.23 149.99
  A 5.23 5.23 0.0 0 1 80.00 144.76
  L 80.00 125.42
  A 5.43 5.43 0.0 0 1 85.46 119.99
  Q 94.58 120.03 104.64 119.98
  C 110.30 119.94 112.14 127.31 106.66 129.56
  Q 104.53 130.44 101.34 129.88
  Q 100.00 129.65 100.00 131.01
  L 100.00 138.78
  Q 100.00 140.09 101.32 140.09
  L 120.02 140.00
  Z"
/>
<path fill="#00007a" d="
  M 290.17 127.89
  Q 290.74 128.62 290.96 129.58
  Q 291.06 130.02 290.64 130.18
  Q 290.43 130.25 290.23 130.35
  Q 289.96 130.49 290.23 130.63
  Q 290.28 130.66 290.33 130.65
  Q 290.90 130.59 290.87 131.14
  Q 290.79 132.35 291.38 133.41
  A 0.88 0.84 32.3 0 1 291.48 133.81
  L 291.48 137.57
  Q 291.48 138.02 291.18 138.36
  Q 290.57 139.05 290.55 139.99
  L 280.48 139.97
  Q 279.99 139.97 279.99 140.47
  L 280.02 149.47
  A 0.48 0.47 -89.4 0 0 280.48 149.95
  Q 286.71 150.10 294.28 149.93
  C 299.34 149.83 302.40 155.79 297.65 159.12
  Q 296.34 160.04 294.57 160.03
  Q 278.09 159.95 265.31 160.02
  A 5.29 5.29 0.0 0 1 260.00 154.73
  L 260.01 140.52
  Q 260.01 140.01 259.50 139.99
  C 255.74 139.85 252.99 140.90 250.56 137.16
  Q 249.74 135.90 250.00 134.70
  Q 251.05 129.88 255.76 129.95
  Q 262.60 130.07 269.47 129.97
  Q 269.99 129.96 270.01 129.44
  C 270.08 127.17 269.44 124.30 270.89 122.32
  C 273.46 118.80 277.19 119.46 279.42 122.83
  C 280.43 124.35 279.99 127.72 279.99 129.51
  Q 279.99 130.00 280.48 130.00
  L 289.50 130.00
  A 0.49 0.49 0.0 0 0 289.99 129.45
  Q 289.92 128.89 290.17 127.89
  Z"
/>
<path fill="#0000b4" d="
  M 289.88 179.95
  Q 286.82 177.28 287.63 171.67
  Q 287.66 171.45 287.48 171.35
  Q 287.27 171.24 287.12 171.08
  A 0.06 0.06 0.0 0 1 287.13 170.99
  Q 288.61 169.97 287.73 170.03
  L 309.45 169.98
  Q 310.01 169.98 310.01 169.42
  Q 310.02 163.01 309.97 155.24
  C 309.96 152.87 311.88 150.52 314.09 150.14
  Q 316.20 149.78 318.78 150.09
  Q 320.00 150.24 320.00 149.02
  L 320.00 141.21
  Q 320.00 139.94 318.73 139.94
  L 290.55 139.99
  Q 290.57 139.05 291.18 138.36
  Q 291.48 138.02 291.48 137.57
  L 291.48 133.81
  A 0.88 0.84 32.3 0 0 291.38 133.41
  Q 290.79 132.35 290.87 131.14
  Q 290.90 130.59 290.33 130.65
  Q 290.28 130.66 290.23 130.63
  Q 289.96 130.49 290.23 130.35
  Q 290.43 130.25 290.64 130.18
  Q 291.06 130.02 290.96 129.58
  Q 290.74 128.62 290.17 127.89
  C 289.21 123.66 291.26 119.93 295.72 119.96
  Q 312.18 120.07 324.56 119.96
  A 5.43 5.43 0.0 0 1 330.04 125.43
  Q 329.94 138.90 330.04 154.55
  Q 330.05 156.36 329.18 157.61
  C 327.26 160.37 324.21 160.30 321.21 159.91
  Q 320.00 159.75 320.00 160.97
  L 320.00 169.03
  Q 320.00 170.26 321.22 170.10
  C 324.30 169.70 327.23 169.58 329.19 172.45
  Q 330.03 173.69 330.02 175.15
  Q 329.97 185.70 330.03 195.03
  C 330.04 197.26 327.99 199.48 325.95 199.85
  Q 323.77 200.25 321.27 199.89
  Q 319.99 199.70 319.99 200.99
  L 320.00 208.85
  Q 320.00 210.30 321.43 210.09
  C 323.25 209.84 325.97 209.68 327.57 210.82
  C 328.92 211.79 330.01 213.19 330.01 214.92
  Q 330.00 238.50 330.00 265.05
  Q 330.00 266.39 329.17 267.58
  C 326.25 271.77 320.02 269.95 320.01 264.88
  Q 319.98 253.19 320.02 240.56
  Q 320.02 240.01 319.47 239.99
  C 317.16 239.92 314.42 240.53 312.41 239.13
  C 308.80 236.62 309.31 232.20 313.28 230.45
  Q 315.35 229.54 318.70 230.11
  Q 320.00 230.33 320.00 229.01
  L 320.00 220.98
  Q 320.00 219.75 318.78 219.91
  C 315.75 220.28 312.84 220.39 310.88 217.64
  Q 309.97 216.36 309.98 214.85
  Q 310.04 205.10 309.98 195.04
  C 309.97 192.67 312.17 190.32 314.36 190.07
  Q 316.47 189.83 318.85 190.08
  Q 320.00 190.20 320.00 189.04
  L 320.00 181.00
  Q 320.00 180.00 319.00 180.00
  L 310.51 179.99
  Q 309.96 179.99 309.96 180.55
  Q 309.98 182.74 310.03 184.95
  C 310.08 187.69 307.35 190.07 304.69 190.03
  Q 300.02 189.95 295.26 190.03
  C 293.31 190.06 291.48 188.83 290.60 187.17
  Q 289.99 186.05 290.03 183.67
  Q 290.07 181.79 289.88 179.95
  Z"
/>
<path fill="#00003c" d="
  M 121.25 149.99
  Q 120.88 147.46 120.26 145.24
  Q 119.96 144.13 120.02 140.00
  C 119.92 137.39 119.48 134.00 121.16 131.99
  C 123.84 128.77 127.42 129.68 129.47 132.90
  C 130.41 134.38 130.00 137.64 129.98 139.44
  A 0.56 0.55 90.0 0 0 130.53 140.00
  L 149.49 140.00
  Q 150.00 140.00 150.02 139.48
  C 150.08 137.28 149.48 134.43 150.77 132.50
  C 152.90 129.32 156.60 129.11 159.02 132.25
  C 160.59 134.28 159.92 137.08 159.97 139.47
  Q 159.99 139.98 160.49 140.00
  C 163.98 140.13 167.39 139.11 169.45 142.91
  Q 170.03 143.96 170.02 145.10
  Q 169.95 154.21 170.01 164.75
  C 170.03 167.10 168.14 169.44 165.96 169.84
  Q 163.82 170.24 161.21 169.90
  Q 159.99 169.74 159.99 170.97
  L 159.99 179.02
  Q 159.99 180.20 161.17 180.08
  C 164.24 179.76 167.13 179.57 169.12 182.36
  Q 170.02 183.62 170.02 185.14
  Q 169.97 195.75 170.01 205.01
  C 170.02 208.71 165.76 211.09 162.67 209.31
  C 159.21 207.32 160.02 203.75 160.02 200.52
  Q 160.02 200.01 159.51 200.00
  C 157.18 199.92 154.30 200.53 152.30 199.08
  C 149.27 196.89 149.97 193.72 150.03 190.54
  Q 150.04 189.99 149.49 189.99
  C 147.56 189.97 144.58 190.41 142.83 189.43
  C 139.08 187.30 140.14 183.99 140.01 180.50
  Q 140.00 179.98 139.48 179.97
  Q 137.72 179.95 135.84 180.05
  C 133.10 180.20 130.57 178.38 130.07 175.77
  C 129.49 172.76 132.25 169.98 135.33 169.98
  Q 142.60 169.99 149.45 170.02
  Q 150.01 170.02 150.01 169.47
  L 150.00 151.00
  Q 150.00 150.00 149.00 150.00
  L 140.97 150.00
  Q 139.67 150.00 139.89 151.28
  Q 140.54 155.02 139.38 157.10
  Q 137.14 161.09 133.16 159.57
  C 129.28 158.08 129.97 153.78 130.03 150.59
  Q 130.04 150.03 129.47 150.02
  L 121.25 149.99
  Z"
/>
<path fill="#00003c" d="
  M 250.54 160.01
  C 252.86 160.09 255.62 159.45 257.62 160.86
  C 262.12 164.03 259.61 170.19 254.45 170.05
  Q 249.71 169.92 245.25 170.03
  C 243.23 170.08 241.56 168.83 240.55 167.16
  C 239.57 165.53 240.03 162.46 240.02 160.55
  Q 240.02 160.00 239.47 160.00
  L 210.51 160.00
  Q 210.01 160.00 209.99 160.50
  C 209.87 164.19 210.89 166.85 207.34 169.33
  Q 206.01 170.26 204.56 169.95
  Q 199.97 168.95 199.99 164.27
  Q 200.01 157.51 200.01 150.56
  Q 200.01 150.00 199.45 150.00
  L 185.25 150.00
  A 5.26 5.25 0.1 0 1 180.00 144.75
  L 180.00 135.25
  A 5.30 5.29 -89.3 0 1 185.42 129.95
  Q 190.23 130.07 194.35 129.94
  C 197.70 129.84 200.34 132.62 200.05 135.98
  Q 199.89 137.72 200.04 139.39
  Q 200.09 139.97 200.68 139.98
  Q 207.43 140.05 214.52 139.96
  C 216.64 139.93 218.34 140.99 219.39 142.79
  C 220.48 144.65 219.90 147.37 220.00 149.48
  Q 220.02 150.00 220.54 150.00
  Q 232.41 150.01 244.80 149.98
  C 247.37 149.98 250.08 152.35 250.03 155.00
  Q 249.99 157.25 249.99 159.43
  Q 249.99 159.99 250.54 160.01
  Z"
/>
<circle fill="#000059" cx="225.00" cy="135.00" r="4.94"/>
<circle fill="#0000b4" cx="55.01" cy="155.01" r="4.94"/>
<circle fill="#000090" cx="74.99" cy="154.99" r="4.94"/>
<rect fill="#0000b4" x="40.08" y="160.11" width="9.86" height="19.78" rx="4.69"/>
<circle fill="#000059" cx="105.00" cy="165.00" r="4.94"/>
<circle fill="#000059" cx="125.00" cy="165.00" r="4.95"/>
<path fill="#000090" d="
  M 90.66 180.03
  Q 97.71 180.00 104.95 180.00
  C 107.74 180.00 110.31 182.84 109.98 185.48
  C 109.67 187.90 107.35 190.01 104.80 190.00
  Q 88.60 189.99 75.23 190.00
  A 5.23 5.23 0.0 0 1 70.00 184.77
  L 70.00 175.24
  A 5.23 5.23 0.0 0 1 75.30 170.01
  Q 79.45 170.06 84.11 169.93
  C 87.65 169.82 90.34 172.52 90.06 176.11
  Q 89.93 177.74 89.95 179.33
  Q 89.97 180.03 90.66 180.03
  Z"
/>
<circle fill="#000059" cx="115.00" cy="175.00" r="4.95"/>
<path fill="#000017" d="
  M 229.97 180.61
  Q 230.01 182.75 230.02 184.92
  C 230.04 187.97 227.10 190.19 224.19 190.05
  Q 222.25 189.95 220.50 189.99
  Q 220.00 190.00 220.00 190.51
  L 220.00 204.73
  A 5.29 5.29 0.0 0 1 214.62 210.02
  Q 210.30 209.94 205.46 210.05
  C 202.61 210.11 199.88 207.67 199.97 204.76
  Q 200.03 202.47 200.01 200.54
  Q 200.00 200.00 199.46 200.00
  L 185.25 200.00
  A 5.25 5.25 0.0 0 1 180.00 194.75
  L 180.00 180.52
  Q 180.00 180.02 179.50 180.00
  C 177.20 179.91 174.42 180.53 172.42 179.16
  C 169.35 177.05 169.09 173.52 172.11 171.06
  Q 173.42 170.00 175.10 170.00
  Q 184.12 170.02 194.89 169.99
  C 197.93 169.99 200.24 172.92 200.03 175.83
  Q 199.90 177.74 200.04 179.56
  Q 200.07 180.00 200.51 180.00
  L 219.48 180.00
  Q 219.98 180.00 220.00 179.50
  C 220.11 177.13 219.41 174.36 220.89 172.33
  C 221.94 170.90 223.43 169.93 225.21 169.98
  Q 229.44 170.09 234.08 169.93
  C 236.92 169.84 239.58 171.64 239.96 174.42
  C 240.37 177.39 237.53 180.15 234.49 180.04
  Q 232.51 179.97 230.61 179.97
  Q 229.96 179.96 229.97 180.61
  Z"
/>
<path fill="#000059" d="
  M 287.73 170.03
  Q 288.61 169.97 287.13 170.99
  A 0.06 0.06 0.0 0 0 287.12 171.08
  Q 287.27 171.24 287.48 171.35
  Q 287.66 171.45 287.63 171.67
  Q 286.82 177.28 289.88 179.95
  L 280.55 180.03
  Q 280.01 180.03 279.99 180.56
  Q 279.92 182.28 280.05 184.02
  C 280.31 187.40 277.87 190.06 274.48 190.03
  Q 267.50 189.97 260.53 190.00
  Q 259.99 190.00 259.98 190.54
  Q 259.95 192.51 260.05 194.50
  C 260.18 197.34 257.70 200.05 254.82 200.02
  Q 252.75 200.00 250.56 199.97
  Q 250.00 199.96 250.00 200.52
  L 250.00 229.47
  A 0.50 0.50 0.0 0 0 250.47 229.97
  Q 252.51 230.07 254.43 229.97
  C 257.20 229.81 260.08 232.23 260.03 235.08
  Q 259.99 237.24 259.98 239.42
  Q 259.98 239.98 260.54 239.98
  L 269.82 240.03
  Q 269.67 240.76 269.11 241.50
  Q 268.55 242.25 268.39 242.89
  Q 267.52 246.35 267.03 250.00
  L 250.56 250.05
  Q 250.05 250.06 250.05 250.56
  L 249.97 277.57
  Q 249.61 276.64 249.55 275.46
  Q 249.50 274.49 248.92 275.27
  L 248.37 275.99
  Q 248.26 276.14 248.25 276.14
  Q 248.11 276.13 248.01 276.03
  Q 247.78 275.77 247.44 275.73
  Q 241.47 275.02 234.47 274.81
  Q 233.15 274.77 232.04 274.27
  A 0.56 0.55 18.3 0 0 231.27 274.65
  Q 231.18 275.03 231.06 274.84
  Q 230.61 274.11 230.46 274.97
  Q 230.33 275.68 230.04 276.24
  L 229.98 270.53
  Q 229.97 270.02 229.46 270.00
  C 227.12 269.91 224.37 270.54 222.36 269.12
  C 219.18 266.87 220.03 263.84 220.01 260.53
  Q 220.01 260.02 219.50 260.00
  C 217.16 259.93 214.31 260.54 212.29 259.08
  C 209.22 256.86 210.01 253.77 210.02 250.55
  Q 210.02 250.01 209.48 249.99
  Q 207.74 249.93 205.98 250.05
  C 202.70 250.26 199.93 247.90 199.95 244.54
  Q 200.00 237.46 200.03 230.54
  Q 200.03 230.01 199.50 229.99
  Q 197.72 229.93 195.83 230.04
  C 192.88 230.20 189.89 227.91 189.98 224.82
  Q 190.11 220.86 189.93 216.15
  C 189.81 212.88 191.98 209.87 195.32 210.03
  C 197.55 210.13 200.07 212.64 200.01 214.96
  Q 199.95 217.26 199.99 219.44
  Q 200.00 219.99 200.55 220.00
  Q 207.04 220.06 214.52 219.96
  C 216.60 219.93 218.38 220.99 219.38 222.79
  C 220.47 224.75 219.86 227.23 219.97 229.47
  Q 220.00 229.99 220.53 230.01
  C 222.84 230.08 225.57 229.48 227.59 230.88
  C 231.16 233.35 230.65 237.84 226.74 239.52
  Q 224.57 240.46 221.32 239.88
  Q 220.00 239.65 220.00 240.99
  L 220.00 249.00
  Q 220.00 250.00 221.00 250.00
  L 239.50 250.00
  Q 240.00 250.00 240.00 249.50
  L 240.00 200.52
  Q 240.00 199.99 239.47 199.99
  C 235.93 199.93 231.21 200.71 230.11 195.95
  C 229.39 192.85 232.34 189.81 235.56 189.96
  Q 237.49 190.05 239.46 190.01
  Q 239.99 190.00 240.01 189.47
  Q 240.08 187.73 239.95 185.97
  C 239.68 182.46 242.31 179.88 245.77 179.94
  Q 253.28 180.07 259.48 179.98
  Q 259.97 179.98 260.00 179.48
  C 260.15 176.04 259.06 173.00 262.58 170.73
  Q 263.67 170.03 265.42 170.02
  Q 276.60 169.96 287.73 170.03
  Z"
/>
<circle fill="#0000b4" cx="45.01" cy="195.01" r="4.94"/>
<rect fill="#000059" x="-9.89" y="-4.94" transform="translate(130.00,195.00) rotate(-0.3)" width="19.78" height="9.88" rx="4.69"/>
<path fill="#0000b4" d="
  M 69.97 210.61
  Q 69.94 212.30 70.04 214.23
  C 70.20 217.13 67.94 220.03 64.92 220.01
  Q 55.39 219.97 45.20 220.02
  Q 43.68 220.02 42.48 219.17
  C 39.06 216.72 39.19 212.80 42.81 210.65
  C 44.75 209.50 47.30 210.13 49.51 210.01
  Q 49.99 209.98 50.01 209.51
  Q 50.07 207.73 49.95 205.70
  C 49.77 202.73 52.14 199.97 55.16 199.98
  Q 70.97 200.03 85.01 200.01
  C 87.35 200.01 90.49 202.84 89.98 205.32
  Q 89.02 210.02 84.26 210.01
  Q 77.51 210.00 70.64 209.96
  Q 69.99 209.96 69.97 210.61
  Z"
/>
<circle fill="#000059" cx="105.00" cy="205.01" r="4.95"/>
<path fill="#00003c" d="
  M 130.02 249.92
  Q 128.57 247.96 129.13 247.10
  Q 129.37 246.73 129.15 246.35
  Q 127.98 244.35 128.66 241.98
  A 0.45 0.45 0.0 0 0 128.09 241.43
  Q 127.83 241.51 127.88 241.88
  Q 128.02 240.00 127.12 238.50
  A 1.39 1.35 -62.4 0 1 126.92 237.82
  L 126.72 225.76
  Q 126.72 225.31 126.97 224.95
  Q 127.32 224.43 127.16 223.73
  Q 126.84 222.30 126.05 220.99
  Q 125.80 220.58 125.33 220.47
  L 123.77 220.13
  L 129.49 219.97
  Q 129.99 219.96 130.01 219.46
  C 130.10 217.11 129.43 214.34 130.88 212.35
  C 133.16 209.22 136.20 210.03 139.48 210.01
  Q 140.01 210.01 140.02 209.47
  Q 140.05 207.50 139.95 205.45
  C 139.71 200.15 146.53 197.92 149.35 202.77
  C 150.50 204.74 149.87 207.23 149.98 209.47
  Q 150.01 209.97 150.51 210.00
  Q 152.24 210.07 154.25 209.96
  C 156.72 209.83 159.22 211.45 159.77 213.77
  Q 160.28 215.90 159.91 218.72
  Q 159.73 220.00 161.03 220.00
  L 169.24 220.00
  Q 170.10 220.00 170.05 219.15
  C 169.89 216.30 169.41 213.30 171.91 211.24
  C 175.21 208.53 180.10 211.01 180.02 215.07
  Q 179.94 219.71 180.04 224.63
  C 180.09 227.11 178.12 229.57 175.73 229.89
  Q 173.55 230.19 171.14 229.92
  Q 170.00 229.79 170.00 230.94
  L 170.00 238.98
  Q 170.00 240.24 171.25 240.09
  C 174.22 239.74 176.97 239.58 179.00 242.19
  C 181.82 245.81 178.40 250.06 174.42 250.05
  Q 169.40 250.03 164.90 249.94
  A 5.00 4.99 -89.5 0 1 160.00 244.94
  L 160.00 230.52
  Q 160.00 230.01 159.49 229.99
  C 157.12 229.93 154.39 230.53 152.34 229.10
  C 149.68 227.25 149.67 224.28 150.12 221.31
  Q 150.32 220.00 149.00 220.00
  L 140.96 220.00
  Q 139.97 220.00 139.98 220.98
  Q 140.00 227.75 140.03 234.58
  C 140.04 236.53 139.18 238.08 137.56 239.17
  C 135.55 240.51 132.85 239.92 130.56 239.99
  Q 130.02 240.00 130.02 240.54
  L 130.02 249.92
  Z"
/>
<path fill="#00007a" d="
  M 280.66 210.00
  Q 286.93 210.02 294.65 209.98
  C 296.74 209.96 298.27 211.01 299.37 212.69
  C 301.44 215.84 298.38 220.01 294.93 220.01
  Q 279.47 219.99 265.16 220.01
  C 262.72 220.01 260.45 217.99 260.05 215.70
  C 259.51 212.68 262.46 209.83 265.54 209.96
  Q 267.49 210.05 269.45 210.01
  Q 269.98 210.00 270.00 209.47
  C 270.11 207.16 269.43 204.43 270.83 202.42
  C 272.91 199.44 276.39 199.08 278.84 201.99
  C 280.61 204.11 279.96 206.78 279.97 209.31
  Q 279.97 210.00 280.66 210.00
  Z"
/>
<circle fill="#00007a" cx="95.00" cy="215.00" r="4.95"/>
<circle fill="#000059" cx="114.99" cy="215.00" r="4.95"/>
<circle fill="#00003c" cx="225.00" cy="215.00" r="4.94"/>
<path fill="#000090" d="
  M 69.32 239.95
  C 67.07 240.00 64.29 240.48 62.37 239.12
  C 58.94 236.68 59.28 232.62 62.84 230.63
  C 64.80 229.53 67.26 230.11 69.48 230.02
  Q 69.98 229.99 70.00 229.50
  C 70.09 227.20 69.40 224.20 70.94 222.24
  C 72.06 220.81 73.41 219.93 75.30 219.96
  Q 80.03 220.02 84.70 219.99
  A 5.28 5.28 0.0 0 1 90.02 225.40
  Q 89.92 229.42 90.06 234.16
  C 90.16 237.37 87.79 240.18 84.46 240.03
  Q 82.49 239.95 80.54 240.00
  Q 79.89 240.02 79.93 240.67
  C 80.09 242.89 80.48 246.14 78.92 247.91
  Q 75.56 251.70 71.93 248.74
  C 69.24 246.53 70.07 243.57 70.00 240.59
  Q 69.98 239.93 69.32 239.95
  Z"
/>
<circle fill="#000059" cx="105.00" cy="225.00" r="4.95"/>
<circle fill="#0000b4" cx="305.00" cy="225.00" r="4.94"/>
<path fill="#000059" d="
  M 123.77 220.13
  L 125.33 220.47
  Q 125.80 220.58 126.05 220.99
  Q 126.84 222.30 127.16 223.73
  Q 127.32 224.43 126.97 224.95
  Q 126.72 225.31 126.72 225.76
  L 126.92 237.82
  A 1.39 1.35 -62.4 0 0 127.12 238.50
  Q 128.02 240.00 127.88 241.88
  Q 127.83 241.51 128.09 241.43
  A 0.45 0.45 0.0 0 1 128.66 241.98
  Q 127.98 244.35 129.15 246.35
  Q 129.37 246.73 129.13 247.10
  Q 128.57 247.96 130.02 249.92
  Q 141.67 250.06 153.56 250.00
  Q 156.07 249.98 157.28 250.67
  C 160.79 252.66 160.00 256.18 159.98 259.47
  Q 159.98 259.99 160.50 260.01
  C 162.83 260.09 165.61 259.44 167.62 260.87
  C 170.67 263.04 170.91 266.57 167.86 268.95
  C 165.78 270.58 162.98 269.94 160.51 269.97
  Q 159.98 269.98 159.98 270.51
  Q 159.95 272.51 160.05 274.51
  C 160.19 277.39 157.64 280.12 154.73 280.03
  Q 150.54 279.91 146.07 280.06
  C 140.91 280.24 137.43 274.53 142.24 270.96
  C 144.29 269.45 147.07 270.05 149.47 270.02
  Q 150.00 270.01 150.00 269.47
  L 150.00 261.00
  Q 150.00 260.00 149.00 260.00
  L 140.97 260.00
  Q 139.75 260.00 139.90 261.21
  C 140.14 263.22 140.39 266.15 139.00 267.81
  Q 136.09 271.29 132.67 269.31
  C 129.20 267.30 130.00 263.83 130.02 260.54
  Q 130.03 259.98 129.47 259.98
  C 127.38 259.98 124.64 260.43 122.73 259.35
  C 119.13 257.32 120.12 253.89 120.02 250.55
  Q 120.01 250.01 119.46 250.01
  Q 108.45 249.95 95.48 250.04
  C 90.44 250.08 87.79 244.01 92.46 240.80
  Q 93.65 239.98 95.13 239.98
  Q 108.58 240.01 119.46 240.00
  Q 119.99 240.00 120.00 239.47
  Q 120.05 232.96 119.95 225.46
  C 119.91 222.92 121.46 221.06 123.77 220.13
  Z"
/>
<circle fill="#00003c" cx="185.00" cy="235.00" r="4.94"/>
<path fill="#000090" d="
  M 259.99 309.55
  Q 259.55 309.39 259.25 309.37
  Q 259.03 309.36 259.22 309.26
  Q 259.28 309.23 259.28 309.17
  Q 259.29 308.89 259.02 308.96
  C 257.11 309.43 255.61 308.77 253.73 308.95
  Q 252.70 309.05 251.72 309.07
  Q 246.90 309.13 242.38 309.29
  Q 242.32 309.29 242.27 309.34
  Q 242.17 309.45 242.14 309.58
  Q 242.07 309.98 241.69 309.85
  Q 240.40 309.41 239.98 309.93
  Q 235.16 310.25 233.74 309.87
  C 230.86 309.09 228.61 305.02 230.98 302.21
  C 232.03 300.97 233.25 299.97 234.95 299.98
  Q 242.62 300.02 249.74 299.99
  Q 250.00 299.99 250.00 299.72
  L 250.00 290.25
  Q 250.00 290.00 249.75 290.00
  L 235.20 290.00
  A 5.21 5.20 -89.8 0 1 230.00 284.76
  L 230.04 276.24
  Q 230.33 275.68 230.46 274.97
  Q 230.61 274.11 231.06 274.84
  Q 231.18 275.03 231.27 274.65
  A 0.56 0.55 18.3 0 1 232.04 274.27
  Q 233.15 274.77 234.47 274.81
  Q 241.47 275.02 247.44 275.73
  Q 247.78 275.77 248.01 276.03
  Q 248.11 276.13 248.25 276.14
  Q 248.26 276.14 248.37 275.99
  L 248.92 275.27
  Q 249.50 274.49 249.55 275.46
  Q 249.61 276.64 249.97 277.57
  Q 249.88 278.56 250.11 279.50
  Q 250.23 280.00 250.74 280.00
  L 279.50 280.00
  Q 280.00 280.00 280.00 279.50
  L 280.01 250.54
  Q 280.01 250.05 279.51 250.04
  L 267.03 250.00
  Q 267.52 246.35 268.39 242.89
  Q 268.55 242.25 269.11 241.50
  Q 269.67 240.76 269.82 240.03
  Q 270.04 238.03 270.05 235.93
  Q 270.07 233.39 270.93 232.27
  C 271.97 230.90 273.46 229.95 275.23 229.98
  Q 280.01 230.06 284.74 229.97
  C 287.33 229.91 290.10 232.39 290.03 235.06
  Q 289.98 237.24 289.99 239.47
  Q 289.99 239.98 290.51 240.00
  C 294.33 240.15 296.94 239.09 299.45 242.83
  Q 300.26 244.03 299.98 245.39
  C 299.00 250.12 294.97 250.45 290.98 249.89
  Q 290.00 249.76 290.00 250.75
  L 290.00 258.85
  Q 290.00 260.01 291.15 260.01
  Q 297.75 260.03 304.57 259.95
  C 307.30 259.92 310.47 262.55 310.01 265.47
  C 309.62 267.90 307.40 270.02 304.81 270.02
  Q 298.11 270.01 290.99 269.97
  Q 289.99 269.97 289.99 270.97
  L 290.00 279.25
  Q 290.00 280.21 290.95 280.09
  C 294.12 279.70 297.11 279.59 299.15 282.41
  C 301.54 285.71 298.54 290.03 294.81 290.02
  Q 276.88 289.99 260.54 290.00
  Q 260.02 290.00 260.02 290.51
  L 259.99 309.55
  Z"
/>
<rect fill="#0000b4" x="40.12" y="240.07" width="19.78" height="9.86" rx="4.69"/>
<path fill="#000090" d="
  M 210.00 300.28
  Q 210.00 300.00 209.73 300.00
  L 200.25 300.00
  A 0.25 0.25 0.0 0 0 200.00 300.25
  L 200.00 314.73
  A 5.31 5.31 0.0 0 1 194.48 320.04
  Q 190.64 319.89 186.30 320.07
  C 183.14 320.21 180.30 318.42 179.98 315.22
  C 179.75 312.92 182.03 310.48 184.13 310.12
  Q 186.26 309.76 188.72 310.11
  Q 190.00 310.29 190.00 309.00
  L 190.00 300.94
  Q 190.00 300.00 189.06 299.99
  Q 182.59 299.96 175.59 300.04
  C 173.32 300.07 171.78 299.04 170.61 297.23
  C 168.41 293.79 171.96 289.90 175.52 289.95
  Q 183.23 290.07 189.80 289.97
  Q 190.01 289.97 190.01 289.76
  L 190.00 280.11
  Q 190.00 279.82 189.71 279.86
  Q 183.97 280.72 181.68 278.59
  Q 179.78 276.81 179.90 273.56
  Q 180.23 264.11 179.90 255.72
  A 5.51 5.51 0.0 0 1 185.46 250.00
  Q 189.85 250.05 194.52 249.96
  C 197.67 249.90 200.25 252.61 200.04 255.77
  Q 199.91 257.74 200.00 259.56
  Q 200.02 259.99 200.45 260.00
  C 202.65 260.09 205.52 259.49 207.45 260.78
  C 210.61 262.91 210.97 266.52 207.84 268.95
  C 205.74 270.58 202.98 269.91 200.51 269.98
  Q 199.99 270.00 199.99 270.51
  L 200.00 289.50
  Q 200.00 290.00 200.50 290.00
  L 209.53 290.00
  Q 210.01 290.00 210.01 289.52
  Q 210.01 282.89 209.98 275.19
  Q 209.97 273.62 210.88 272.35
  C 214.00 268.01 220.10 270.32 220.04 275.40
  Q 219.95 282.93 220.01 289.49
  Q 220.02 289.98 220.50 290.00
  C 224.25 290.15 227.00 289.10 229.43 292.84
  C 231.11 295.43 229.08 298.70 226.59 299.62
  Q 224.48 300.40 221.30 299.89
  Q 220.00 299.68 220.00 301.00
  L 220.00 308.87
  Q 220.00 310.25 221.37 310.08
  C 224.42 309.71 227.13 309.64 229.15 312.39
  C 230.85 314.70 229.96 317.33 227.85 318.96
  C 225.74 320.59 222.95 319.92 220.48 319.99
  A 0.54 0.54 0.0 0 0 219.95 320.55
  C 220.04 323.03 220.59 326.04 218.76 328.06
  Q 215.53 331.62 211.99 328.78
  C 210.87 327.88 209.99 326.55 209.99 325.08
  Q 210.00 312.37 210.00 300.28
  Z"
/>
<path fill="#0000b4" d="
  M 73.95 260.02
  Q 73.19 260.61 74.86 260.72
  A 0.06 0.06 0.0 0 1 74.90 260.81
  Q 74.75 261.00 74.54 261.14
  Q 74.07 261.42 74.08 261.96
  Q 74.13 265.04 75.27 267.76
  Q 75.38 268.04 75.41 268.33
  Q 75.42 268.43 75.36 268.52
  Q 74.88 269.15 75.73 269.30
  Q 76.32 269.40 76.20 270.01
  L 50.50 270.04
  Q 50.00 270.04 50.00 270.54
  L 50.00 319.50
  Q 50.00 320.00 50.50 320.00
  L 99.55 320.00
  A 0.43 0.43 0.0 0 0 99.98 319.57
  L 100.04 310.81
  L 100.43 306.84
  Q 100.48 306.36 100.95 306.40
  L 109.98 307.16
  L 109.94 329.52
  Q 109.94 330.00 109.46 330.00
  L 40.25 330.00
  A 0.25 0.25 0.0 0 1 40.00 329.75
  L 40.00 260.55
  Q 40.00 260.07 40.49 260.07
  L 73.95 260.02
  Z"
/>
<path fill="#000090" d="
  M 73.95 260.02
  L 109.69 260.03
  A 0.27 0.27 0.0 0 1 109.96 260.30
  L 109.98 307.16
  L 100.95 306.40
  Q 100.48 306.36 100.43 306.84
  L 100.04 310.81
  L 99.97 270.56
  Q 99.97 270.06 99.47 270.06
  L 76.20 270.01
  Q 76.32 269.40 75.73 269.30
  Q 74.88 269.15 75.36 268.52
  Q 75.42 268.43 75.41 268.33
  Q 75.38 268.04 75.27 267.76
  Q 74.13 265.04 74.08 261.96
  Q 74.07 261.42 74.54 261.14
  Q 74.75 261.00 74.90 260.81
  A 0.06 0.06 0.0 0 0 74.86 260.72
  Q 73.19 260.61 73.95 260.02
  Z"
/>
<circle fill="#00007a" cx="265.00" cy="265.00" r="4.94"/>
<path fill="#000090" d="
  M 130.52 280.01
  C 132.87 280.09 135.77 279.43 137.74 280.97
  C 142.11 284.40 139.49 290.12 134.38 290.04
  Q 129.71 289.97 125.29 290.00
  A 5.29 5.28 0.2 0 1 119.98 284.66
  Q 120.02 280.28 119.96 275.50
  C 119.90 270.62 125.44 268.02 128.88 272.06
  C 130.63 274.11 129.93 277.02 129.99 279.48
  Q 130.00 279.99 130.52 280.01
  Z"
/>
<rect fill="#000090" x="-15.04" y="-15.00" transform="translate(75.03,294.99) rotate(0.1)" width="30.08" height="30.00" rx="0.63"/>
<circle fill="#000090" cx="165.00" cy="285.00" r="4.94"/>
<rect fill="#000090" x="150.06" y="290.10" width="9.88" height="19.80" rx="4.70"/>
<path fill="#0000b4" d="
  M 239.98 309.93
  Q 240.40 309.41 241.69 309.85
  Q 242.07 309.98 242.14 309.58
  Q 242.17 309.45 242.27 309.34
  Q 242.32 309.29 242.38 309.29
  Q 246.90 309.13 251.72 309.07
  Q 252.70 309.05 253.73 308.95
  C 255.61 308.77 257.11 309.43 259.02 308.96
  Q 259.29 308.89 259.28 309.17
  Q 259.28 309.23 259.22 309.26
  Q 259.03 309.36 259.25 309.37
  Q 259.55 309.39 259.99 309.55
  Q 259.92 309.58 260.00 309.81
  Q 260.06 309.98 260.24 309.99
  C 263.70 310.08 266.70 309.13 269.13 312.39
  C 270.35 314.03 270.16 316.77 269.88 318.76
  Q 269.71 320.00 270.96 320.00
  L 279.00 320.00
  Q 280.26 320.00 280.10 318.75
  C 279.71 315.63 279.56 312.84 282.46 310.83
  C 284.42 309.46 287.26 310.09 289.53 310.00
  Q 290.01 309.98 290.03 309.50
  C 290.10 307.29 289.50 304.61 290.67 302.67
  C 291.70 300.98 293.41 299.93 295.44 299.96
  Q 302.95 300.05 309.49 300.00
  Q 309.99 299.99 310.01 299.50
  Q 310.08 297.74 309.95 295.72
  C 309.77 292.69 312.23 289.93 315.29 289.96
  Q 320.36 290.02 324.72 290.00
  A 5.27 5.27 0.0 0 1 330.03 295.33
  Q 329.93 304.26 330.05 314.78
  Q 330.07 316.58 328.98 317.89
  C 326.64 320.68 323.74 320.04 320.58 319.97
  Q 320.01 319.95 319.99 320.53
  C 319.91 322.63 320.48 325.33 319.36 327.20
  C 316.47 332.01 309.88 329.95 309.96 324.65
  Q 310.05 317.58 310.00 310.25
  A 0.25 0.25 0.0 0 0 309.75 310.00
  L 300.25 309.99
  A 0.26 0.26 0.0 0 0 299.99 310.25
  L 300.00 324.75
  A 5.25 5.25 0.0 0 1 294.75 330.00
  L 245.31 330.00
  A 5.34 5.34 0.0 0 1 239.97 324.65
  L 239.98 309.93
  Z"
/>
<circle fill="#0000b4" cx="135.00" cy="305.00" r="4.94"/>
<path fill="#0000b4" d="
  M 130.54 319.98
  C 132.70 320.11 135.59 319.47 137.46 320.77
  C 140.66 322.99 141.02 326.58 137.75 329.02
  Q 136.34 330.07 134.53 330.04
  Q 129.96 329.94 125.50 330.04
  A 5.45 5.45 0.0 0 1 119.95 324.45
  Q 120.07 320.25 119.93 315.74
  C 119.78 310.80 125.33 307.87 128.89 312.07
  C 130.59 314.08 129.98 316.93 129.93 319.32
  Q 129.92 319.94 130.54 319.98
  Z"
/>
<circle fill="#0000b4" cx="145.00" cy="315.00" r="4.94"/>
<path fill="#0000b4" d="
  M 160.07 319.29
  C 159.87 316.44 159.35 313.38 161.91 311.23
  C 165.26 308.42 170.11 311.12 170.04 315.18
  Q 169.95 320.01 170.03 324.60
  A 5.32 5.31 -0.2 0 1 164.66 330.00
  Q 160.65 329.96 155.68 330.05
  C 150.68 330.14 147.77 324.42 152.23 320.98
  C 154.25 319.43 157.09 320.07 159.44 319.99
  Q 160.11 319.97 160.07 319.29
  Z"
/>
</svg>
